# Blender v2.83.4 OBJ File: ''
# www.blender.org
mtllib water.mtl
o shuizhu
v 2.247450 0.500001 -10.000000
v -2.928931 0.500001 -10.000000
v 6.730328 0.500001 -7.411810
v 2.247450 0.000001 -10.000000
v -2.928931 0.000001 -10.000000
v -7.411808 0.000001 -7.411810
v -7.411808 0.500001 -7.411810
v -9.999999 -0.000000 -2.928932
v 6.730328 0.000001 -7.411810
v 9.318518 -0.000000 -2.928932
v -9.999999 -0.000001 2.247449
v -9.999999 0.500000 -2.928932
v -9.999999 0.499999 2.247449
v -7.411808 -0.000002 6.730326
v 9.318518 -0.000001 2.247449
v 6.730328 -0.000002 6.730326
v -2.928931 -0.000002 9.318516
v -7.411808 0.499998 6.730326
v -2.928931 0.499998 9.318516
v 2.247450 -0.000002 9.318516
v 2.247450 0.499998 9.318516
v 6.730328 0.499998 6.730326
v 9.318518 0.499999 2.247449
v 9.318518 0.500000 -2.928932
vt 1.222865 0.261015
vt 1.222865 0.153835
vt 1.169275 0.353835
vt 1.222865 0.261015
vt 1.222865 0.153835
vt 1.169275 0.061015
vt 1.169275 0.061015
vt 1.076455 0.007425
vt 1.169275 0.353835
vt 1.076455 0.407425
vt 0.969275 0.007425
vt 1.076455 0.007425
vt 0.969275 0.007425
vt 0.876455 0.061015
vt 0.969275 0.407425
vt 0.876455 0.353835
vt 0.822865 0.153835
vt 0.876455 0.061015
vt 0.822865 0.153835
vt 0.822865 0.261015
vt 0.822865 0.261015
vt 0.876455 0.353835
vt 0.969275 0.407425
vt 1.076455 0.407425
vn 0.0000 1.0000 0.0000
vn 0.5000 0.0000 -0.8660
vn 0.0000 0.0000 -1.0000
vn 0.0000 -1.0000 -0.0000
vn -0.5000 0.0000 -0.8660
vn -0.8660 0.0000 -0.5000
vn -1.0000 0.0000 0.0000
vn -0.8660 0.0000 0.5000
vn -0.5000 0.0000 0.8660
vn 0.0000 0.0000 1.0000
vn 0.5000 0.0000 0.8660
vn 0.8660 0.0000 0.5000
vn 1.0000 0.0000 0.0000
vn 0.8660 0.0000 -0.5000
usemtl Mat_0
s off
f 1/1/1 2/2/1 3/3/1
f 1/1/2 3/3/2 4/4/2
f 5/5/3 1/1/3 4/4/3
f 5/5/4 4/4/4 6/6/4
f 6/6/5 2/2/5 5/5/5
f 7/7/5 2/2/5 6/6/5
f 8/8/6 7/7/6 6/6/6
f 6/6/4 9/9/4 8/8/4
f 8/8/4 9/9/4 10/10/4
f 8/8/4 10/10/4 11/11/4
f 11/11/7 12/12/7 8/8/7
f 13/13/7 12/12/7 11/11/7
f 14/14/8 13/13/8 11/11/8
f 11/11/4 15/15/4 14/14/4
f 14/14/4 15/15/4 16/16/4
f 14/14/4 16/16/4 17/17/4
f 17/17/9 18/18/9 14/14/9
f 19/19/9 18/18/9 17/17/9
f 20/20/10 19/19/10 17/17/10
f 21/21/10 19/19/10 20/20/10
f 16/16/11 21/21/11 20/20/11
f 22/22/11 21/21/11 16/16/11
f 22/22/1 18/18/1 21/21/1
f 22/22/1 13/13/1 18/18/1
f 23/23/1 13/13/1 22/22/1
f 23/23/12 22/22/12 15/15/12
f 10/10/13 23/23/13 15/15/13
f 24/24/13 23/23/13 10/10/13
f 24/24/1 12/12/1 23/23/1
f 24/24/1 7/7/1 12/12/1
f 3/3/1 7/7/1 24/24/1
f 3/3/14 24/24/14 9/9/14
f 21/21/1 18/18/1 19/19/1
f 17/17/4 16/16/4 20/20/4
f 15/15/12 22/22/12 16/16/12
f 18/18/8 13/13/8 14/14/8
f 23/23/1 12/12/1 13/13/1
f 11/11/4 10/10/4 15/15/4
f 9/9/14 24/24/14 10/10/14
f 12/12/6 7/7/6 8/8/6
f 6/6/4 4/4/4 9/9/4
f 4/4/2 3/3/2 9/9/2
f 3/3/1 2/2/1 7/7/1
f 2/2/3 1/1/3 5/5/3
o shuilang
v 2.247450 30.000000 -9.999995
v -2.928931 30.000000 -9.999995
v 6.730328 30.000000 -7.411805
v 2.247450 0.500000 -10.000000
v -2.928931 0.500000 -10.000000
v -7.411808 0.500000 -7.411810
v -7.411808 30.000000 -7.411805
v -9.999999 0.499999 -2.928932
v -9.999999 29.999998 -2.928927
v 9.318518 29.999998 -2.928927
v 9.318518 29.999998 2.247454
v 9.318518 0.499999 -2.928932
v 6.730328 0.500000 -7.411810
v -9.999999 0.499998 2.247449
v 9.318518 0.499998 2.247449
v -7.411808 0.499997 6.730326
v -9.999999 29.999998 2.247454
v -7.411808 29.999998 6.730331
v 6.730328 29.999998 6.730331
v 2.247450 29.999996 9.318521
v 6.730328 0.499997 6.730326
v 2.247450 0.499997 9.318516
v -2.928931 29.999996 9.318521
v -2.928931 0.499997 9.318516
vt 0.300000 0.668978
vt 0.300000 0.738594
vt 0.300000 0.628786
vt 0.000000 0.668978
vt 0.000000 0.738594
vt 0.000000 0.818978
vt 0.300000 0.818978
vt 0.000000 0.888594
vt 0.300000 0.888594
vt 0.300000 0.628786
vt 0.300000 0.668978
vt 0.000000 0.628786
vt 0.000000 0.628786
vt 0.000000 0.928786
vt 0.000000 0.668978
vt 0.000000 0.928786
vt 0.300000 0.928786
vt 0.300000 0.928786
vt 0.300000 0.738594
vt 0.300000 0.818978
vt 0.000000 0.738594
vt 0.000000 0.818978
vt 0.300000 0.888594
vt 0.000000 0.888594
vn 0.0000 1.0000 0.0000
vn 0.5000 0.0000 -0.8660
vn 0.0000 0.0000 -1.0000
vn 0.0000 -1.0000 -0.0000
vn -0.5000 0.0000 -0.8660
vn -0.8660 0.0000 -0.5000
vn 1.0000 0.0000 0.0000
vn 0.8660 0.0000 -0.5000
vn -0.8660 -0.0000 0.5000
vn -1.0000 0.0000 0.0000
vn 0.5000 -0.0000 0.8660
vn 0.8660 -0.0000 0.5000
vn 0.0000 -0.0000 1.0000
vn -0.5000 -0.0000 0.8660
usemtl Mat_0
s off
f 25/25/15 26/26/15 27/27/15
f 27/27/16 28/28/16 25/25/16
f 28/28/17 29/29/17 25/25/17
f 29/29/18 28/28/18 30/30/18
f 29/29/19 30/30/19 26/26/19
f 26/26/19 30/30/19 31/31/19
f 30/30/20 32/32/20 31/31/20
f 31/31/20 32/32/20 33/33/20
f 34/34/15 31/31/15 33/33/15
f 34/34/15 33/33/15 35/35/15
f 35/35/21 36/36/21 34/34/21
f 36/36/22 37/37/22 34/34/22
f 34/34/22 37/37/22 27/27/22
f 32/32/18 37/37/18 36/36/18
f 32/32/18 36/36/18 38/38/18
f 38/38/18 36/36/18 39/39/18
f 38/38/18 39/39/18 40/40/18
f 38/38/23 40/40/23 41/41/23
f 33/33/24 38/38/24 41/41/24
f 41/41/23 40/40/23 42/42/23
f 43/43/15 41/41/15 42/42/15
f 43/43/15 42/42/15 44/44/15
f 44/44/25 45/45/25 43/43/25
f 45/45/26 39/39/26 43/43/26
f 43/43/26 39/39/26 35/35/26
f 46/46/25 45/45/25 44/44/25
f 47/47/27 46/46/27 44/44/27
f 48/48/27 46/46/27 47/47/27
f 42/42/28 48/48/28 47/47/28
f 48/48/18 45/45/18 46/46/18
f 40/40/18 45/45/18 48/48/18
f 44/44/15 42/42/15 47/47/15
f 35/35/15 41/41/15 43/43/15
f 40/40/28 48/48/28 42/42/28
f 40/40/18 39/39/18 45/45/18
f 39/39/21 36/36/21 35/35/21
f 35/35/15 33/33/15 41/41/15
f 27/27/15 31/31/15 34/34/15
f 32/32/24 38/38/24 33/33/24
f 30/30/18 37/37/18 32/32/18
f 30/30/18 28/28/18 37/37/18
f 37/37/16 28/28/16 27/27/16
f 27/27/15 26/26/15 31/31/15
f 25/25/17 29/29/17 26/26/17
